<?xml version="1.0" standalone="no"?>
<!DOCTYPE svg PUBLIC "-//W3C//DTD SVG 20010904//EN"
 "http://www.w3.org/TR/2001/REC-SVG-20010904/DTD/svg10.dtd">
<svg version="1.0" xmlns="http://www.w3.org/2000/svg"
 width="467.000000pt" height="335.000000pt" viewBox="0 0 467.000000 335.000000"
 preserveAspectRatio="xMidYMid meet">

<g transform="translate(0.000000,335.000000) scale(0.100000,-0.100000)"
fill="#000000" stroke="none">
<path d="M2239 3093 c-13 -3 -14 -12 -6 -58 l10 -55 58 0 c32 0 61 4 64 10 3
5 9 32 12 60 l6 50 -64 -1 c-35 -1 -71 -3 -80 -6z"/>
<path d="M2439 2453 l-96 -4 -7 -52 c-3 -29 -6 -73 -6 -99 l0 -48 203 0 c111
0 212 3 225 6 16 5 22 14 22 33 0 15 4 31 9 37 5 5 12 37 15 72 l7 62 -138 -2
c-76 -1 -181 -4 -234 -5z"/>
<path d="M1395 2360 c-20 -40 -19 -50 8 -50 12 0 63 -5 114 -12 l92 -12 52
-141 c28 -77 58 -154 65 -172 8 -17 14 -38 14 -46 0 -9 4 -18 9 -22 5 -3 13
-20 17 -38 3 -17 13 -45 20 -62 7 -16 43 -111 79 -210 37 -99 76 -204 87 -232
l19 -53 385 0 384 0 0 49 0 48 -122 -4 c-68 -2 -201 -8 -296 -13 -244 -14
-261 -13 -268 8 -4 9 -12 31 -19 47 -27 64 -39 105 -31 112 4 5 173 9 376 11
420 4 371 -9 405 107 9 33 24 80 31 105 15 49 98 333 114 389 5 19 7 37 5 39
-2 3 -262 -3 -577 -12 -315 -9 -580 -16 -589 -16 -11 0 -27 26 -48 78 -17 43
-31 83 -31 89 0 5 -8 17 -18 26 -15 14 -41 17 -140 17 l-121 0 -16 -30z m1419
-235 c-1 -43 -40 -176 -54 -185 -6 -4 -63 -8 -126 -9 l-116 -1 4 99 c2 55 7
103 10 107 8 7 198 22 253 19 27 -1 30 -4 29 -30z m-358 -67 c-11 -139 -9
-134 -69 -142 -29 -3 -89 -6 -133 -6 l-81 0 -7 38 c-3 20 -6 58 -6 84 0 26 -4
50 -10 53 -5 3 -10 15 -10 25 0 20 -2 20 254 28 l68 2 -6 -82z m-377 0 c1 -35
6 -64 11 -66 15 -5 12 -82 -2 -87 -7 -2 -58 -6 -113 -8 l-100 -5 -32 82 c-17
44 -35 93 -38 108 -7 26 -6 27 47 31 29 2 92 4 139 5 l86 2 2 -62z m666 -177
c5 -8 -6 -51 -44 -181 -7 -24 -13 -26 -104 -34 -54 -5 -99 -7 -101 -5 -6 7 6
186 14 198 5 10 63 17 212 30 9 0 19 -3 23 -8z m-311 -113 c-4 -57 -9 -106
-13 -110 -9 -9 -194 -14 -207 -6 -9 6 -27 123 -29 188 0 15 55 22 208 28 l47
2 -6 -102z m-320 65 c7 -21 26 -150 26 -176 0 -16 -9 -17 -86 -15 l-87 3 -34
89 c-18 50 -32 95 -30 101 3 6 44 12 105 13 89 3 101 1 106 -15z"/>
<path d="M1995 1236 c-40 -60 9 -135 78 -122 27 5 39 14 51 41 15 31 15 38 2
64 -17 33 -34 41 -82 41 -25 0 -38 -6 -49 -24z"/>
<path d="M2596 1241 c-28 -30 -24 -80 8 -108 30 -26 43 -28 81 -13 45 17 56
87 19 124 -22 23 -87 21 -108 -3z"/>
</g>
</svg>
